# xmcd
#
# Track frame offsets:
#	150
#	15240
#	22317
#	34725
#	45310
#	52640
#	69111
#	75081
#	87641
#	98827
#
# Disc length: 1449 seconds
#
# Revision: 1
# Processed by: cddbd v1.5.2PL0 Copyright (c) Steve Scherf et al.
# Submitted via: audiograbber 1.83.01
#
DISCID=6205a70a
DTITLE=Dixie Melody Boys - Smooth and Easy
DYEAR=2006
DGENRE=Southern Gospel
TTITLE0=Beautiful Isle Of Somewhere
TTITLE1=First Day In Heaven
TTITLE2=Nobody
TTITLE3=Rainbow Of Love
TTITLE4=I Wanna Know
TTITLE5=Sweet Jesus
TTITLE6=Gonna Open Up All The Doors Of My Heart
TTITLE7=A Soul Such As I
TTITLE8=Happy Rhythm
TTITLE9=Standing On The Solid Rock
EXTD=
EXTT0=
EXTT1=
EXTT2=
EXTT3=
EXTT4=
EXTT5=
EXTT6=
EXTT7=
EXTT8=
EXTT9=
PLAYORDER=
